# xmcd
#
# Track frame offsets: 
#        165
#        21520
#        38587
#        56572
#        73145
#        88682
#        108915
#        131285
#        146942
#        163600
#        183797
#        201230
#        215502
#        236817
#        254855
#        276777
#
# Disc length: 3926 seconds
#
# Revision: 3
# Processed by: cddbd v1.5.2PL0 Copyright (c) Steve Scherf et al.
# Submitted via: ExactAudioCopyFreeDBPlugin 1.0
#
DISCID=f50f5410
DTITLE=Elkie Brooks - The Very Best Of Elkie Brooks
DYEAR=1986
DGENRE=
TTITLE0=Nights In White Satin
TTITLE1=Don't Cry Out Loud
TTITLE2=Blue Moon
TTITLE3=Gasoline Alley
TTITLE4=Sunshine After The Rain
TTITLE5=Ain't Misbehavin'
TTITLE6=Fool If You Think It's Over
TTITLE7=Minutes
TTITLE8=Pearl's A Singer
TTITLE9=Goin'back
TTITLE10=If You Leave Me Now
TTITLE11=Only Love Can Break Your Heart
TTITLE12=I Guess Thats Why They Call It The Blues
TTITLE13=Growing Tired
TTITLE14=Will You Write Me A Song
TTITLE15=Lilac Wine
EXTD=
EXTT0=
EXTT1=
EXTT2=
EXTT3=
EXTT4=
EXTT5=
EXTT6=
EXTT7=
EXTT8=
EXTT9=
EXTT10=
EXTT11=
EXTT12=
EXTT13=
EXTT14=
EXTT15=
PLAYORDER=
